<mxfile host="app.diagrams.net" agent="Mozilla/5.0 (Windows NT 10.0; Win64; x64) AppleWebKit/537.36 (KHTML, like Gecko) Chrome/136.0.0.0 Safari/537.36" version="27.0.9">
  <diagram name="Page-1" id="BNyKiGBuuGG61aXcBPMi">
    <mxGraphModel dx="1426" dy="1885" grid="1" gridSize="10" guides="1" tooltips="1" connect="1" arrows="1" fold="1" page="1" pageScale="1" pageWidth="850" pageHeight="1100" math="0" shadow="0">
      <root>
        <mxCell id="0" />
        <mxCell id="1" parent="0" />
        <mxCell id="CSKhIocXfhMWl00AikXb-1" value="University Staff / Club Coordinator" style="swimlane;html=1;startSize=30;fontStyle=0;collapsible=0;horizontal=1;swimlaneLine=1;strokeWidth=2;swimlaneFillColor=#ffffff;whiteSpace=wrap;" parent="1" vertex="1">
          <mxGeometry x="80" y="-1010" width="350" height="690" as="geometry" />
        </mxCell>
        <mxCell id="CSKhIocXfhMWl00AikXb-2" value="" style="ellipse;html=1;shape=startState;fillColor=#000000;strokeColor=#ff0000;" parent="CSKhIocXfhMWl00AikXb-1" vertex="1">
          <mxGeometry x="60" y="60" width="30" height="30" as="geometry" />
        </mxCell>
        <mxCell id="CSKhIocXfhMWl00AikXb-3" value="" style="edgeStyle=orthogonalEdgeStyle;html=1;verticalAlign=bottom;endArrow=open;endSize=8;strokeColor=#ff0000;rounded=0;" parent="CSKhIocXfhMWl00AikXb-1" source="CSKhIocXfhMWl00AikXb-2" edge="1">
          <mxGeometry relative="1" as="geometry">
            <mxPoint x="75" y="150" as="targetPoint" />
          </mxGeometry>
        </mxCell>
        <mxCell id="CSKhIocXfhMWl00AikXb-4" value="Puts username and password" style="rounded=1;whiteSpace=wrap;html=1;arcSize=40;fontColor=#000000;fillColor=#ffffc0;strokeColor=#ff0000;" parent="CSKhIocXfhMWl00AikXb-1" vertex="1">
          <mxGeometry x="15" y="150" width="120" height="40" as="geometry" />
        </mxCell>
        <mxCell id="CSKhIocXfhMWl00AikXb-5" value="" style="edgeStyle=orthogonalEdgeStyle;html=1;verticalAlign=bottom;endArrow=open;endSize=8;strokeColor=#ff0000;rounded=0;" parent="CSKhIocXfhMWl00AikXb-1" source="CSKhIocXfhMWl00AikXb-4" edge="1">
          <mxGeometry relative="1" as="geometry">
            <mxPoint x="75" y="250" as="targetPoint" />
          </mxGeometry>
        </mxCell>
        <mxCell id="CSKhIocXfhMWl00AikXb-6" value="Authentication" style="rounded=1;whiteSpace=wrap;html=1;arcSize=40;fontColor=#000000;fillColor=#ffffc0;strokeColor=#ff0000;" parent="CSKhIocXfhMWl00AikXb-1" vertex="1">
          <mxGeometry x="15" y="250" width="120" height="40" as="geometry" />
        </mxCell>
        <mxCell id="CSKhIocXfhMWl00AikXb-7" value="" style="edgeStyle=orthogonalEdgeStyle;html=1;verticalAlign=bottom;endArrow=open;endSize=8;strokeColor=#ff0000;rounded=0;" parent="CSKhIocXfhMWl00AikXb-1" source="CSKhIocXfhMWl00AikXb-6" edge="1">
          <mxGeometry relative="1" as="geometry">
            <mxPoint x="75" y="350" as="targetPoint" />
          </mxGeometry>
        </mxCell>
        <mxCell id="CSKhIocXfhMWl00AikXb-8" value="Are the credentials&lt;br&gt;Valid?" style="rhombus;whiteSpace=wrap;html=1;fillColor=#ffffc0;strokeColor=#ff0000;" parent="CSKhIocXfhMWl00AikXb-1" vertex="1">
          <mxGeometry x="27.5" y="350" width="95" height="50" as="geometry" />
        </mxCell>
        <mxCell id="CSKhIocXfhMWl00AikXb-9" value="no" style="edgeStyle=orthogonalEdgeStyle;html=1;align=left;verticalAlign=bottom;endArrow=open;endSize=8;strokeColor=#ff0000;rounded=0;entryX=1;entryY=0.5;entryDx=0;entryDy=0;" parent="CSKhIocXfhMWl00AikXb-1" source="CSKhIocXfhMWl00AikXb-8" target="CSKhIocXfhMWl00AikXb-4" edge="1">
          <mxGeometry x="-1" relative="1" as="geometry">
            <mxPoint x="200" y="170" as="targetPoint" />
            <Array as="points">
              <mxPoint x="210" y="375" />
              <mxPoint x="210" y="170" />
            </Array>
          </mxGeometry>
        </mxCell>
        <mxCell id="CSKhIocXfhMWl00AikXb-10" value="yes" style="edgeStyle=orthogonalEdgeStyle;html=1;align=left;verticalAlign=top;endArrow=open;endSize=8;strokeColor=#ff0000;rounded=0;entryX=0.5;entryY=0;entryDx=0;entryDy=0;" parent="CSKhIocXfhMWl00AikXb-1" source="CSKhIocXfhMWl00AikXb-8" target="CSKhIocXfhMWl00AikXb-11" edge="1">
          <mxGeometry x="-1" relative="1" as="geometry">
            <mxPoint x="80" y="450" as="targetPoint" />
            <Array as="points">
              <mxPoint x="75" y="440" />
              <mxPoint x="75" y="440" />
            </Array>
          </mxGeometry>
        </mxCell>
        <mxCell id="CSKhIocXfhMWl00AikXb-11" value="Activity" style="rounded=1;whiteSpace=wrap;html=1;arcSize=40;fontColor=#000000;fillColor=#ffffc0;strokeColor=#ff0000;" parent="CSKhIocXfhMWl00AikXb-1" vertex="1">
          <mxGeometry x="15" y="450" width="120" height="40" as="geometry" />
        </mxCell>
        <mxCell id="CSKhIocXfhMWl00AikXb-12" value="" style="edgeStyle=orthogonalEdgeStyle;html=1;verticalAlign=bottom;endArrow=open;endSize=8;strokeColor=#ff0000;rounded=0;entryX=0;entryY=0.5;entryDx=0;entryDy=0;" parent="CSKhIocXfhMWl00AikXb-1" source="CSKhIocXfhMWl00AikXb-11" target="CSKhIocXfhMWl00AikXb-13" edge="1">
          <mxGeometry relative="1" as="geometry">
            <mxPoint x="75" y="550" as="targetPoint" />
          </mxGeometry>
        </mxCell>
        <mxCell id="CSKhIocXfhMWl00AikXb-13" value="Homepage" style="rounded=1;whiteSpace=wrap;html=1;arcSize=40;fontColor=#000000;fillColor=#ffffc0;strokeColor=#ff0000;" parent="CSKhIocXfhMWl00AikXb-1" vertex="1">
          <mxGeometry x="160" y="500" width="120" height="40" as="geometry" />
        </mxCell>
        <mxCell id="CSKhIocXfhMWl00AikXb-14" value="" style="edgeStyle=orthogonalEdgeStyle;html=1;verticalAlign=bottom;endArrow=open;endSize=8;strokeColor=#ff0000;rounded=0;entryX=1;entryY=0.5;entryDx=0;entryDy=0;" parent="CSKhIocXfhMWl00AikXb-1" source="CSKhIocXfhMWl00AikXb-13" target="CSKhIocXfhMWl00AikXb-15" edge="1">
          <mxGeometry relative="1" as="geometry">
            <mxPoint x="220" y="600" as="targetPoint" />
            <Array as="points">
              <mxPoint x="220" y="600" />
            </Array>
          </mxGeometry>
        </mxCell>
        <mxCell id="CSKhIocXfhMWl00AikXb-15" value="Send an Item request" style="rounded=1;whiteSpace=wrap;html=1;arcSize=40;fontColor=#000000;fillColor=#ffffc0;strokeColor=#ff0000;" parent="CSKhIocXfhMWl00AikXb-1" vertex="1">
          <mxGeometry x="12.5" y="570" width="125" height="60" as="geometry" />
        </mxCell>
        <mxCell id="CSKhIocXfhMWl00AikXb-16" value="Service Department" style="swimlane;html=1;startSize=30;fontStyle=0;collapsible=0;horizontal=1;swimlaneLine=1;strokeWidth=2;swimlaneFillColor=#ffffff;whiteSpace=wrap;" parent="1" vertex="1">
          <mxGeometry x="470" y="-1010" width="350" height="690" as="geometry" />
        </mxCell>
        <mxCell id="CSKhIocXfhMWl00AikXb-17" value="Gets notified" style="rounded=1;whiteSpace=wrap;html=1;arcSize=40;fontColor=#000000;fillColor=#ffffc0;strokeColor=#ff0000;" parent="CSKhIocXfhMWl00AikXb-16" vertex="1">
          <mxGeometry x="115" y="150" width="120" height="40" as="geometry" />
        </mxCell>
        <mxCell id="CSKhIocXfhMWl00AikXb-18" value="" style="edgeStyle=orthogonalEdgeStyle;html=1;verticalAlign=bottom;endArrow=open;endSize=8;strokeColor=#ff0000;rounded=0;" parent="CSKhIocXfhMWl00AikXb-16" source="CSKhIocXfhMWl00AikXb-17" edge="1">
          <mxGeometry relative="1" as="geometry">
            <mxPoint x="175" y="250" as="targetPoint" />
          </mxGeometry>
        </mxCell>
        <mxCell id="CSKhIocXfhMWl00AikXb-22" value="Provides the item to the user" style="rounded=1;whiteSpace=wrap;html=1;arcSize=40;fontColor=#000000;fillColor=#ffffc0;strokeColor=#ff0000;" parent="CSKhIocXfhMWl00AikXb-16" vertex="1">
          <mxGeometry x="20" y="380" width="120" height="40" as="geometry" />
        </mxCell>
        <mxCell id="CSKhIocXfhMWl00AikXb-23" value="" style="edgeStyle=orthogonalEdgeStyle;html=1;verticalAlign=bottom;endArrow=open;endSize=8;strokeColor=#ff0000;rounded=0;entryX=0.459;entryY=0.035;entryDx=0;entryDy=0;entryPerimeter=0;" parent="CSKhIocXfhMWl00AikXb-16" source="CSKhIocXfhMWl00AikXb-22" target="CSKhIocXfhMWl00AikXb-26" edge="1">
          <mxGeometry relative="1" as="geometry">
            <mxPoint x="140" y="500" as="targetPoint" />
            <Array as="points">
              <mxPoint x="80" y="460" />
              <mxPoint x="180" y="460" />
              <mxPoint x="180" y="500" />
              <mxPoint x="178" y="500" />
            </Array>
          </mxGeometry>
        </mxCell>
        <mxCell id="CSKhIocXfhMWl00AikXb-24" value="Forwards the request to finance" style="rounded=1;whiteSpace=wrap;html=1;arcSize=40;fontColor=#000000;fillColor=#ffffc0;strokeColor=#ff0000;" parent="CSKhIocXfhMWl00AikXb-16" vertex="1">
          <mxGeometry x="220" y="380" width="120" height="40" as="geometry" />
        </mxCell>
        <mxCell id="CSKhIocXfhMWl00AikXb-26" value="Updates it in the system" style="rounded=1;whiteSpace=wrap;html=1;arcSize=40;fontColor=#000000;fillColor=#ffffc0;strokeColor=#ff0000;" parent="CSKhIocXfhMWl00AikXb-16" vertex="1">
          <mxGeometry x="122.5" y="500" width="120" height="40" as="geometry" />
        </mxCell>
        <mxCell id="CSKhIocXfhMWl00AikXb-27" value="" style="edgeStyle=orthogonalEdgeStyle;html=1;verticalAlign=bottom;endArrow=open;endSize=8;strokeColor=#ff0000;rounded=0;" parent="CSKhIocXfhMWl00AikXb-16" source="CSKhIocXfhMWl00AikXb-26" target="CSKhIocXfhMWl00AikXb-28" edge="1">
          <mxGeometry relative="1" as="geometry">
            <mxPoint x="182" y="610" as="targetPoint" />
            <Array as="points">
              <mxPoint x="182" y="570" />
              <mxPoint x="182" y="600" />
            </Array>
          </mxGeometry>
        </mxCell>
        <mxCell id="CSKhIocXfhMWl00AikXb-28" value="" style="ellipse;html=1;shape=endState;fillColor=#000000;strokeColor=#ff0000;" parent="CSKhIocXfhMWl00AikXb-16" vertex="1">
          <mxGeometry x="167" y="595" width="30" height="30" as="geometry" />
        </mxCell>
        <mxCell id="rWG4PvMqCdkKNWzdxLjk-2" style="edgeStyle=orthogonalEdgeStyle;rounded=0;orthogonalLoop=1;jettySize=auto;html=1;exitX=1;exitY=0.5;exitDx=0;exitDy=0;strokeColor=light-dark(#ee3f3f, #ededed);" edge="1" parent="CSKhIocXfhMWl00AikXb-16" source="rWG4PvMqCdkKNWzdxLjk-1">
          <mxGeometry relative="1" as="geometry">
            <mxPoint x="290" y="380" as="targetPoint" />
          </mxGeometry>
        </mxCell>
        <mxCell id="rWG4PvMqCdkKNWzdxLjk-5" value="No" style="edgeLabel;html=1;align=center;verticalAlign=middle;resizable=0;points=[];" vertex="1" connectable="0" parent="rWG4PvMqCdkKNWzdxLjk-2">
          <mxGeometry x="-0.6125" y="2" relative="1" as="geometry">
            <mxPoint as="offset" />
          </mxGeometry>
        </mxCell>
        <mxCell id="rWG4PvMqCdkKNWzdxLjk-3" style="edgeStyle=orthogonalEdgeStyle;rounded=0;orthogonalLoop=1;jettySize=auto;html=1;exitX=0;exitY=0.5;exitDx=0;exitDy=0;strokeColor=light-dark(#EE3F3F,#EDEDED);" edge="1" parent="CSKhIocXfhMWl00AikXb-16" source="rWG4PvMqCdkKNWzdxLjk-1" target="CSKhIocXfhMWl00AikXb-22">
          <mxGeometry relative="1" as="geometry" />
        </mxCell>
        <mxCell id="rWG4PvMqCdkKNWzdxLjk-4" value="Yes" style="edgeLabel;html=1;align=center;verticalAlign=middle;resizable=0;points=[];" vertex="1" connectable="0" parent="rWG4PvMqCdkKNWzdxLjk-3">
          <mxGeometry x="-0.7467" y="-2" relative="1" as="geometry">
            <mxPoint as="offset" />
          </mxGeometry>
        </mxCell>
        <mxCell id="rWG4PvMqCdkKNWzdxLjk-1" value="Is item in stock" style="rhombus;whiteSpace=wrap;html=1;fillColor=#ffffc0;strokeColor=#ff0000;" vertex="1" parent="CSKhIocXfhMWl00AikXb-16">
          <mxGeometry x="125" y="250" width="95" height="50" as="geometry" />
        </mxCell>
        <mxCell id="CSKhIocXfhMWl00AikXb-29" value="" style="edgeStyle=orthogonalEdgeStyle;html=1;verticalAlign=bottom;endArrow=open;endSize=8;strokeColor=#ff0000;rounded=0;entryX=0;entryY=0.5;entryDx=0;entryDy=0;" parent="1" source="CSKhIocXfhMWl00AikXb-15" target="CSKhIocXfhMWl00AikXb-17" edge="1">
          <mxGeometry relative="1" as="geometry">
            <mxPoint x="155" y="-330" as="targetPoint" />
            <Array as="points">
              <mxPoint x="155" y="-360" />
              <mxPoint x="401" y="-360" />
              <mxPoint x="401" y="-840" />
            </Array>
          </mxGeometry>
        </mxCell>
        <mxCell id="rWG4PvMqCdkKNWzdxLjk-6" value="Finance" style="swimlane;html=1;startSize=30;fontStyle=0;collapsible=0;horizontal=1;swimlaneLine=1;strokeWidth=2;swimlaneFillColor=#ffffff;whiteSpace=wrap;strokeColor=light-dark(#121212, #ededed);" vertex="1" parent="1">
          <mxGeometry x="870" y="-1010" width="350" height="690" as="geometry" />
        </mxCell>
        <mxCell id="rWG4PvMqCdkKNWzdxLjk-7" value="Gets notified" style="rounded=1;whiteSpace=wrap;html=1;arcSize=40;fontColor=#000000;fillColor=#ffffc0;strokeColor=#ff0000;" vertex="1" parent="rWG4PvMqCdkKNWzdxLjk-6">
          <mxGeometry x="115" y="150" width="120" height="40" as="geometry" />
        </mxCell>
        <mxCell id="rWG4PvMqCdkKNWzdxLjk-8" value="" style="edgeStyle=orthogonalEdgeStyle;html=1;verticalAlign=bottom;endArrow=open;endSize=8;strokeColor=#ff0000;rounded=0;" edge="1" parent="rWG4PvMqCdkKNWzdxLjk-6" source="rWG4PvMqCdkKNWzdxLjk-7">
          <mxGeometry relative="1" as="geometry">
            <mxPoint x="175" y="250" as="targetPoint" />
          </mxGeometry>
        </mxCell>
        <mxCell id="rWG4PvMqCdkKNWzdxLjk-11" value="Notifies University Staff or Club coordinator" style="rounded=1;whiteSpace=wrap;html=1;arcSize=40;fontColor=#000000;fillColor=#ffffc0;strokeColor=#ff0000;" vertex="1" parent="rWG4PvMqCdkKNWzdxLjk-6">
          <mxGeometry x="220" y="380" width="120" height="40" as="geometry" />
        </mxCell>
        <mxCell id="rWG4PvMqCdkKNWzdxLjk-12" value="Add item in the system" style="rounded=1;whiteSpace=wrap;html=1;arcSize=40;fontColor=#000000;fillColor=#ffffc0;strokeColor=#ff0000;" vertex="1" parent="rWG4PvMqCdkKNWzdxLjk-6">
          <mxGeometry x="30" y="380" width="120" height="40" as="geometry" />
        </mxCell>
        <mxCell id="rWG4PvMqCdkKNWzdxLjk-15" style="edgeStyle=orthogonalEdgeStyle;rounded=0;orthogonalLoop=1;jettySize=auto;html=1;exitX=1;exitY=0.5;exitDx=0;exitDy=0;strokeColor=light-dark(#ee3f3f, #ededed);" edge="1" parent="rWG4PvMqCdkKNWzdxLjk-6" source="rWG4PvMqCdkKNWzdxLjk-19">
          <mxGeometry relative="1" as="geometry">
            <mxPoint x="290" y="380" as="targetPoint" />
          </mxGeometry>
        </mxCell>
        <mxCell id="rWG4PvMqCdkKNWzdxLjk-16" value="No" style="edgeLabel;html=1;align=center;verticalAlign=middle;resizable=0;points=[];" vertex="1" connectable="0" parent="rWG4PvMqCdkKNWzdxLjk-15">
          <mxGeometry x="-0.6125" y="2" relative="1" as="geometry">
            <mxPoint as="offset" />
          </mxGeometry>
        </mxCell>
        <mxCell id="rWG4PvMqCdkKNWzdxLjk-17" style="edgeStyle=orthogonalEdgeStyle;rounded=0;orthogonalLoop=1;jettySize=auto;html=1;exitX=0;exitY=0.5;exitDx=0;exitDy=0;strokeColor=light-dark(#EE3F3F,#EDEDED);" edge="1" parent="rWG4PvMqCdkKNWzdxLjk-6" source="rWG4PvMqCdkKNWzdxLjk-19">
          <mxGeometry relative="1" as="geometry">
            <mxPoint x="80" y="380" as="targetPoint" />
          </mxGeometry>
        </mxCell>
        <mxCell id="rWG4PvMqCdkKNWzdxLjk-18" value="Yes" style="edgeLabel;html=1;align=center;verticalAlign=middle;resizable=0;points=[];" vertex="1" connectable="0" parent="rWG4PvMqCdkKNWzdxLjk-17">
          <mxGeometry x="-0.7467" y="-2" relative="1" as="geometry">
            <mxPoint as="offset" />
          </mxGeometry>
        </mxCell>
        <mxCell id="rWG4PvMqCdkKNWzdxLjk-19" value="Should we Buy it?" style="rhombus;whiteSpace=wrap;html=1;fillColor=#ffffc0;strokeColor=#ff0000;" vertex="1" parent="rWG4PvMqCdkKNWzdxLjk-6">
          <mxGeometry x="125" y="250" width="95" height="50" as="geometry" />
        </mxCell>
        <mxCell id="rWG4PvMqCdkKNWzdxLjk-22" value="" style="ellipse;html=1;shape=endState;fillColor=#000000;strokeColor=#ff0000;" vertex="1" parent="rWG4PvMqCdkKNWzdxLjk-6">
          <mxGeometry x="265" y="520" width="30" height="30" as="geometry" />
        </mxCell>
        <mxCell id="rWG4PvMqCdkKNWzdxLjk-23" style="edgeStyle=orthogonalEdgeStyle;rounded=0;orthogonalLoop=1;jettySize=auto;html=1;exitX=0.5;exitY=1;exitDx=0;exitDy=0;strokeColor=light-dark(#f44848, #ededed);" edge="1" parent="rWG4PvMqCdkKNWzdxLjk-6" source="rWG4PvMqCdkKNWzdxLjk-11">
          <mxGeometry relative="1" as="geometry">
            <mxPoint x="280" y="540" as="targetPoint" />
          </mxGeometry>
        </mxCell>
        <mxCell id="rWG4PvMqCdkKNWzdxLjk-20" style="edgeStyle=orthogonalEdgeStyle;rounded=0;orthogonalLoop=1;jettySize=auto;html=1;exitX=1;exitY=0.5;exitDx=0;exitDy=0;entryX=0;entryY=0.25;entryDx=0;entryDy=0;strokeColor=light-dark(#ea4343, #ededed);" edge="1" parent="1" source="CSKhIocXfhMWl00AikXb-24" target="rWG4PvMqCdkKNWzdxLjk-7">
          <mxGeometry relative="1" as="geometry">
            <Array as="points">
              <mxPoint x="850" y="-610" />
              <mxPoint x="850" y="-850" />
            </Array>
          </mxGeometry>
        </mxCell>
        <mxCell id="rWG4PvMqCdkKNWzdxLjk-21" style="edgeStyle=orthogonalEdgeStyle;rounded=0;orthogonalLoop=1;jettySize=auto;html=1;entryX=1;entryY=0.5;entryDx=0;entryDy=0;strokeColor=light-dark(#f44848, #ededed);" edge="1" parent="1" source="rWG4PvMqCdkKNWzdxLjk-12" target="CSKhIocXfhMWl00AikXb-17">
          <mxGeometry relative="1" as="geometry">
            <Array as="points">
              <mxPoint x="830" y="-620" />
              <mxPoint x="830" y="-840" />
            </Array>
          </mxGeometry>
        </mxCell>
      </root>
    </mxGraphModel>
  </diagram>
</mxfile>
